<svg width="549" height="85" viewBox="0 0 549 85" fill="none" xmlns="http://www.w3.org/2000/svg">
<path fill-rule="evenodd" clip-rule="evenodd" d="M0 1.03516V61.5775H38.4872V52.4105H9.68602V1.03516H0Z" fill="white"/>
<path fill-rule="evenodd" clip-rule="evenodd" d="M77.3629 39.9576C77.3629 32.4343 72.3455 26.9844 64.9087 26.9844C57.4705 26.9844 52.4531 32.4343 52.4531 39.9576C52.4531 47.4823 57.4705 52.9309 64.9087 52.9309C72.3455 52.9309 77.3629 47.4823 77.3629 39.9576ZM42.7656 39.958C42.7656 27.3307 52.1056 17.8164 64.9072 17.8164C77.7074 17.8164 87.0474 27.3307 87.0474 39.958C87.0474 52.5852 77.7074 62.0996 64.9072 62.0996C52.1056 62.0996 42.7656 52.5852 42.7656 39.958Z" fill="white"/>
<path fill-rule="evenodd" clip-rule="evenodd" d="M88.9023 18.3359H99.1087L109.487 48.0874L119.866 18.3359H130.071L114.158 61.5797H104.817L88.9023 18.3359Z" fill="white"/>
<path fill-rule="evenodd" clip-rule="evenodd" d="M165.487 35.1169C164.189 30.0995 159.519 26.6406 153.898 26.6406C148.275 26.6406 143.606 30.0995 142.309 35.1169H165.487ZM131.93 39.958C131.93 27.6768 141.616 17.8164 153.898 17.8164C166.179 17.8164 175.867 27.6768 175.867 39.958C175.867 41.0812 175.779 42.2058 175.607 43.2439H141.962C143.001 48.6938 147.931 53.1042 154.156 53.1042C158.568 53.1042 162.115 51.7215 163.93 48.952H175.261C172.32 56.824 163.93 62.0982 154.156 62.0982C141.616 62.0982 131.93 52.2392 131.93 39.958Z" fill="white"/>
<path fill-rule="evenodd" clip-rule="evenodd" d="M205.613 1.03516H216.339L235.538 47.7405L254.739 1.03516H265.464V61.5775H255.776V23.1767L239.863 61.5775H231.214L215.299 23.1767V61.5775H205.613V1.03516Z" fill="white"/>
<path fill-rule="evenodd" clip-rule="evenodd" d="M330.199 18.3368H339.712V23.2663C341.703 20.6711 345.593 17.8164 351.562 17.8164C362.286 17.8164 368.167 24.1314 368.167 35.634V61.5805H358.654V37.7102C358.654 30.0989 355.454 26.8117 349.573 26.8117C342.999 26.8117 339.712 31.31 339.712 37.7102V61.5805H330.199V18.3368Z" fill="white"/>
<path fill-rule="evenodd" clip-rule="evenodd" d="M410.03 39.9576C410.03 32.5194 405.101 26.9844 397.576 26.9844C390.051 26.9844 385.035 32.5194 385.035 39.9576C385.035 47.3958 390.051 52.9309 397.576 52.9309C405.101 52.9309 410.03 47.3958 410.03 39.9576ZM375.695 39.9565C375.695 26.4642 384.258 17.8149 397.145 17.8149C402.507 17.8149 407.177 19.8911 409.859 22.8323V1.03674L419.373 0V61.579H409.859V57.0821C407.09 59.7638 402.853 62.0981 397.145 62.0981C384.258 62.0981 375.695 53.4501 375.695 39.9565Z" fill="white"/>
<path fill-rule="evenodd" clip-rule="evenodd" d="M461.489 39.958C461.489 32.0007 456.127 26.9847 449.12 26.9847C441.942 26.9847 436.406 32.0007 436.406 39.958C436.406 47.9152 441.942 52.9312 449.12 52.9312C456.127 52.9312 461.489 47.9152 461.489 39.958ZM427.066 39.958C427.066 26.9847 436.406 17.8164 448.774 17.8164C454.482 17.8164 459.327 20.4981 461.142 22.8338V18.3368H470.831V61.5805H461.142V57.0835C459.327 59.4179 454.57 62.0996 448.774 62.0996C436.406 62.0996 427.066 52.9312 427.066 39.958Z" fill="white"/>
<path fill-rule="evenodd" clip-rule="evenodd" d="M492.371 53.9685L476.543 18.3359H486.403L497.127 43.5039L507.853 18.3359H517.712L501.884 53.9685V83.2022L492.371 84.239V53.9685Z" fill="white"/>
<path fill-rule="evenodd" clip-rule="evenodd" d="M519.152 47.3097H528.233C528.233 50.9416 531.088 53.1042 533.941 53.1042C537.228 53.1042 539.476 51.2011 539.476 47.7422C539.476 42.8992 535.238 42.5532 531.001 41.3421C526.676 40.1297 522.007 36.7573 522.007 29.7529C522.007 22.8324 527.369 17.8164 533.941 17.8164C538.439 17.8164 541.812 19.806 544.234 23.3515L538.353 29.1474C537.661 27.4173 536.277 26.2927 534.546 26.2927C532.299 26.2927 531.088 27.8498 531.088 29.5799C531.088 33.3848 535.931 33.4714 540.601 35.2001C545.012 36.8451 548.99 40.2175 548.99 47.5679C548.99 56.2171 542.677 62.0982 533.941 62.0982C525.033 62.0982 519.152 55.5264 519.152 47.3097Z" fill="white"/>
<path fill-rule="evenodd" clip-rule="evenodd" d="M313.334 36.1623C310.877 41.0918 307.048 45.7126 301.283 50.7033C300.483 51.3954 299.678 52.1047 298.898 52.7914C298.424 53.208 297.952 53.6246 297.478 54.0398C297.079 54.3898 296.678 54.7385 296.278 55.0845L295.744 54.6586C289.119 49.3658 282.268 43.8933 280.202 35.1708C279.251 31.1463 279.675 25.896 284.011 24.3363C284.685 24.094 285.361 23.9862 286.027 23.9862C288.328 23.9862 290.516 25.2692 292.054 26.7624C291.127 28.08 290.579 29.2644 290.381 30.3757C290.098 31.9581 290.632 33.4513 291.845 34.4721C293.076 35.5102 294.826 35.8735 296.198 35.3771C297.396 34.9432 298.194 33.9291 298.444 32.5211C298.707 31.0544 300.586 29.2644 301.829 28.08C302.042 27.879 302.239 27.6914 302.412 27.521C304.876 25.1015 307.368 23.8026 309.818 23.6575C312.114 23.5218 314.742 24.5186 315.441 27.0485C315.869 28.603 315.955 30.9001 313.334 36.1623ZM321.262 20.3929C319.17 17.6926 316.17 15.9931 312.59 15.482C309.327 15.0162 305.816 15.5898 302.704 17.0937C300.965 17.9348 299.255 19.0993 297.613 20.5579C294.305 17.4251 290.246 15.6723 286.135 15.6125C279.86 15.514 274.132 19.7887 272.218 25.9892C270.343 32.0686 271.478 38.9731 275.416 45.4291C276.852 47.7821 278.603 50.1217 280.62 52.3829C282.43 54.4111 284.457 56.3914 286.814 58.437C287.867 59.3513 288.95 60.2296 289.969 61.0535C290.24 61.2717 290.51 61.4966 290.779 61.7229C291.481 62.3098 292.207 62.918 292.994 63.429C294.195 64.2063 295.294 64.5935 296.322 64.5935C296.825 64.5935 297.309 64.5004 297.78 64.3167C298.927 63.8669 299.846 63.0764 300.735 62.3124C300.868 62.1967 301.001 62.0822 301.135 61.9691L301.536 61.631C303.814 59.704 306.17 57.7103 308.394 55.6195C309.003 55.0459 309.621 54.4577 310.284 53.8189C312.59 51.5963 318.317 45.654 321.669 38.4966C325.072 31.2301 324.935 25.1401 321.262 20.3929Z" fill="#FF00CC"/>
</svg>
