<svg width="236" height="93" viewBox="0 0 236 93" fill="none" xmlns="http://www.w3.org/2000/svg">
<path d="M80.0371 49.4617C78.6124 47.6169 76.5691 46.4496 74.1227 46.1037C71.8923 45.7866 69.5036 46.1757 67.3738 47.199C66.1938 47.7755 65.0139 48.5681 63.8914 49.5625C61.6322 47.4152 58.8549 46.219 56.0489 46.1757C51.7606 46.1037 47.8609 49.0293 46.5514 53.2664C45.2707 57.417 46.0478 62.1441 48.7387 66.5542C49.7173 68.1683 50.9116 69.768 52.2931 71.3101C53.5306 72.6936 54.9121 74.0484 56.5237 75.4463C57.2432 76.066 57.9771 76.6713 58.6822 77.2334C58.8693 77.3775 59.0564 77.536 59.2291 77.6946C59.7039 78.0981 60.2076 78.516 60.74 78.8619C61.5602 79.3952 62.3085 79.6546 63.0136 79.6546C63.359 79.6546 63.69 79.5969 64.0066 79.4672C64.7836 79.1646 65.4168 78.6169 66.0212 78.0981C66.1075 78.026 66.2082 77.9396 66.2946 77.8675L66.568 77.6369C68.1221 76.3254 69.7338 74.9563 71.2447 73.5295C71.6621 73.1404 72.0794 72.7369 72.5398 72.3045C74.1084 70.7913 78.0224 66.7271 80.3105 61.8271C82.6416 56.8838 82.5409 52.7188 80.0371 49.4617ZM74.6264 60.2562C72.9428 63.6286 70.3382 66.7848 66.3953 70.2004C65.8485 70.676 65.3017 71.166 64.7692 71.6272C64.4526 71.9154 64.1217 72.2036 63.8051 72.4775C63.5317 72.7225 63.2583 72.9531 62.9849 73.1981L62.6251 72.9098C58.1066 69.2924 53.4299 65.5453 52.0197 59.5788C51.3721 56.8261 51.6599 53.2376 54.6243 52.1711C55.0847 52.0126 55.5452 51.9261 56.0057 51.9261C57.5742 51.9261 59.0708 52.8052 60.1212 53.8285C59.4881 54.722 59.1139 55.5435 58.9844 56.2929C58.7974 57.3738 59.1571 58.397 59.9773 59.0888C60.812 59.795 62.0063 60.04 62.9561 59.7085C63.7763 59.4059 64.3231 58.7141 64.4958 57.7629C64.6685 56.7541 65.9636 55.5435 66.8126 54.722C66.9565 54.5779 67.086 54.4626 67.2155 54.3329C68.8992 52.6755 70.5972 51.7964 72.2664 51.6955C73.835 51.609 75.6337 52.2864 76.1086 54.0158C76.3532 55.0823 76.4108 56.6532 74.6264 60.2562Z" fill="#FF00CD"/>
<path d="M0.015625 0H4.54848V24.0967H18.0463V28.3914H0.015625V0Z" fill="white"/>
<path d="M19.7422 18.2582C19.7422 12.3349 24.1168 7.86719 30.1174 7.86719C36.118 7.86719 40.4926 12.3349 40.4926 18.2582C40.4926 24.1814 36.118 28.6491 30.1174 28.6491C24.1168 28.6491 19.7422 24.1814 19.7422 18.2582ZM35.9454 18.2582C35.9454 14.7272 33.5998 12.1763 30.1174 12.1763C26.635 12.1763 24.2894 14.7272 24.2894 18.2582C24.2894 21.7891 26.635 24.34 30.1174 24.34C33.5998 24.3544 35.9454 21.7891 35.9454 18.2582Z" fill="white"/>
<path d="M41.543 8.11328H46.3205L51.1843 22.0784L56.0481 8.11328H60.8256L53.3716 28.4052H48.997L41.543 8.11328Z" fill="white"/>
<path d="M61.418 18.2582C61.418 12.4934 65.9508 7.86719 71.7068 7.86719C77.4629 7.86719 81.9957 12.4934 81.9957 18.2582C81.9957 18.7914 81.9525 19.3102 81.8806 19.8002H66.1235C66.6128 22.3511 68.9152 24.4264 71.8364 24.4264C73.9085 24.4264 75.5634 23.7779 76.4124 22.4808H81.7223C80.3409 26.1703 76.4124 28.6491 71.8364 28.6491C65.9652 28.6491 61.418 24.0229 61.418 18.2582ZM77.1463 15.9955C76.5419 13.6464 74.3546 12.0178 71.7212 12.0178C69.0879 12.0178 66.9006 13.6464 66.2962 15.9955H77.1463Z" fill="white"/>
<path d="M0.01439 36H7.3533L20.4914 68.0088L33.6295 36H40.9684V77.4919H34.3346V51.1757L23.4414 77.4919H17.5271L6.6338 51.1757V77.4919H0L0.01439 36Z" fill="white"/>
<path d="M86.9727 47.8486H93.4769V51.221C94.844 49.4483 97.5062 47.4883 101.579 47.4883C108.917 47.4883 112.947 51.8119 112.947 59.6952V77.4794H106.442V61.1219C106.442 55.9048 104.255 53.6566 100.226 53.6566C95.7218 53.6566 93.4769 56.7407 93.4769 61.1219V77.4794H86.9727V47.8486Z" fill="white"/>
<path d="M117.727 62.6612C117.727 53.4087 123.583 47.4854 132.404 47.4854C136.074 47.4854 139.268 48.9122 141.096 50.9299V35.9992L147.6 35.293V77.491H141.096V74.4069C139.196 76.2372 136.304 77.8513 132.404 77.8513C123.583 77.8369 117.727 71.9136 117.727 62.6612ZM141.211 62.6612C141.211 57.5594 137.844 53.769 132.692 53.769C127.541 53.769 124.116 57.5594 124.116 62.6612C124.116 67.763 127.555 71.5533 132.692 71.5533C137.844 71.5533 141.211 67.763 141.211 62.6612Z" fill="white"/>
<path d="M152.605 62.664C152.605 53.7719 158.995 47.4883 167.456 47.4883C171.356 47.4883 174.68 49.3186 175.917 50.9327V47.8486H182.551V77.4794H175.917V74.3953C174.68 75.995 171.428 77.8397 167.456 77.8397C158.995 77.8397 152.605 71.5561 152.605 62.664ZM176.162 62.664C176.162 57.2163 172.492 53.7719 167.701 53.7719C162.794 53.7719 158.995 57.2163 158.995 62.664C158.995 68.1117 162.779 71.5561 167.701 71.5561C172.492 71.5561 176.162 68.1261 176.162 62.664Z" fill="white"/>
<path d="M197.173 72.2614L186.352 47.8477H193.1L200.439 65.0987L207.778 47.8477H214.527L203.692 72.2614V92.2939L197.187 93.0001V72.2614H197.173Z" fill="white"/>
<path d="M215.449 67.7067H221.666C221.666 70.1999 223.623 71.6844 225.565 71.6844C227.81 71.6844 229.35 70.3873 229.35 68.0093C229.35 64.6946 226.458 64.4496 223.551 63.6281C220.586 62.7922 217.392 60.4863 217.392 55.6872C217.392 50.9457 221.061 47.5156 225.551 47.5156C228.63 47.5156 230.933 48.8848 232.588 51.306L228.559 55.2836C228.084 54.1019 227.134 53.3236 225.954 53.3236C224.414 53.3236 223.594 54.3901 223.594 55.5719C223.594 58.1804 226.904 58.2381 230.098 59.4198C233.12 60.544 235.84 62.8643 235.84 67.894C235.84 73.8173 231.523 77.8527 225.537 77.8527C219.478 77.8382 215.449 73.3417 215.449 67.7067Z" fill="white"/>
</svg>
